<?xml version="1.0" encoding="UTF-8"?>
<svg id="Layer_2" data-name="Layer 2" xmlns="http://www.w3.org/2000/svg" viewBox="0 0 655.16 250.4">
  <defs>
    <style>
      .cls-1 {
        fill: #fbb040;
      }
    </style>
  </defs>
  <g id="Logo">
    <g>
      <g>
        <path class="cls-1" d="M173.84,48.87c-3.74-7.49-12.89-10.56-20.42-6.83-7.5,3.73-10.59,12.89-6.9,20.42,2.38,4.84,4.27,12.73,3.15,15.65-.72,1.89-6.48,12.17-49.58,29.24-.62.25-1.24.49-1.86.73-1.25.49-2.47.98-3.66,1.46V15.25c0-8.41-6.84-15.25-15.25-15.25s-15.25,6.85-15.25,15.25v108.94c-2.02,1.11-4.06,2.26-6.2,3.52l-1.95,1.24h0c-16.64,9.98-43.53,28.5-51.52,48.01-6.46,15.72-5.78,33.45,1.82,47.43,5.02,9.27,15.34,21.12,35.97,25.01,3.51.66,6.96.99,10.25.99,12.95,0,21.62-5.15,26.61-9.47,16.18-13.99,16.49-37.1,16.2-43.84-.66-15.91-.66-52.36-.66-52.79l-.02-1.38c3.06-1.43,6.24-2.85,9.5-4.23l2.42-1.02v-.03c.91-.37,1.86-.75,2.86-1.14,41.21-16.1,62.44-30.75,68.83-47.49,6.62-17.32-3.2-37.85-4.34-40.13ZM71.98,15.25c0-4.05,3.3-7.35,7.35-7.35s7.35,3.3,7.35,7.35v97.61c-1,.44-1.99.9-2.99,1.36-.17.08-.34.15-.5.23-1.68.78-3.37,1.58-5.05,2.4-.4.19-.8.39-1.19.59-1.65.82-3.31,1.64-4.95,2.5V15.25ZM170.79,86.17h0c-5.45,14.29-25.89,27.93-64.31,42.94v-.05l-3.35,1.4c-.73.3-1.44.59-2.12.88-3.94,1.64-8.01,3.47-12.09,5.43l-2.24,1.14h0c-4.99,2.47-9.9,5.08-14.67,7.82v-.16l-6.01,3.66c-2.85,1.74-5.7,3.56-8.48,5.43h-.01c-17.14,11.52-28.87,22.78-32.2,30.89-3.84,9.36-3.55,20.11.77,28.07,3.92,7.21,10.74,11.77,20.29,13.57,11.54,2.18,16.33-2,17.9-3.36,6.77-5.85,8.76-17.56,8.4-25.81-.47-11.37-.66-31.13-.71-42.58,4.76-2.86,9.69-5.59,14.72-8.16.02,9.04.11,36.73.67,50.13.25,5.85.02,25.85-13.47,37.53-3.98,3.44-10.92,7.54-21.43,7.54-2.8,0-5.76-.29-8.78-.86-17.58-3.31-26.27-13.25-30.48-21.01-6.48-11.91-7.02-27.11-1.45-40.66,5.43-13.26,23.72-29.79,50.17-45.35,2.89-1.7,5.52-3.19,8.03-4.56l2.07-1.12v-.05c1.08-.58,2.17-1.17,3.25-1.74.09-.05.18-.09.27-.14,1.63-.85,3.27-1.67,4.92-2.48.41-.2.83-.4,1.24-.61,1.61-.78,3.23-1.56,4.84-2.3.05-.02.09-.05.14-.07.01,0,.02-.01.04-.02h0s5.54-2.42,5.54-2.42c2.84-1.24,5.76-2.45,8.91-3.69.64-.25,1.28-.5,1.9-.75,40.09-15.88,51.52-27.13,54.04-33.77,2.64-6.89-1.59-18.19-3.44-21.96-1.78-3.64-.3-8.05,3.32-9.85,3.62-1.8,8.03-.33,9.82,3.27.39.78,9.54,19.37,4.03,33.77ZM59.08,217.86c-.86.75-3.48,3.02-11.24,1.56-7.2-1.36-12.04-4.49-14.81-9.57-3.21-5.92-3.37-14.08-.4-21.29,1.99-4.84,10.04-13.99,26.63-25.5l2.66-1.78c.73-.48,1.44-.96,2.15-1.42.07,11.68.27,28.36.7,38.49.3,6.99-1.56,15.94-5.69,19.51Z"/>
        <path class="cls-1" d="M210.13,199.9c-2.78-2.99-6.55-4.72-10.63-4.87-4.07-.15-7.95,1.3-10.92,4.06-8.07,7.48-12.52,6.66-13.98,6.39-3.65-.67-13.48-4.94-25.8-29.93-7.5-15.19-18.59-26.54-26.58-33.39l-1.82-1.56-2.97,1.19c-1.69.68-3.42,1.37-5.21,2.07-.73.29-1.43.57-2.05.83,0,0,0,0,0,0h0c-1.04.42-2.04.82-2.96,1.21-.78.32-1.55.65-2.33.99l-2.36,1.1h0s0,2.62,0,2.62v5.97h.02c0,2.22.02,4.65.05,7.2l.02,1.74,1.3,1.16c5.32,4.78,12.68,12.53,17.54,22.38,13.57,27.48,29.6,43.1,47.64,46.42,2.38.44,4.82.66,7.26.66,11.39,0,22.49-4.94,33-14.7,2.99-2.78,4.72-6.55,4.87-10.63.15-4.07-1.3-7.95-4.06-10.93ZM203.94,215.66c-8.99,8.35-18.28,12.58-27.61,12.58-1.96,0-3.92-.18-5.83-.53-15.46-2.84-29.58-17.02-41.98-42.14-5.02-10.18-12.35-18.28-18.05-23.58-.02-3.23-.04-6.23-.04-8.82l2.72-1.16c.64-.26,1.29-.53,1.96-.79,1.27-.49,2.52-.99,3.75-1.48,6.32,5.67,16.23,15.93,22.84,29.31,12.74,25.83,24.14,32.86,31.46,34.21,2.43.45,9.82,1.82,20.81-8.37,1.43-1.33,3.31-2.02,5.25-1.95,1.96.07,3.78.91,5.13,2.35,1.33,1.43,2.02,3.3,1.95,5.25-.07,1.96-.91,3.78-2.35,5.12Z"/>
      </g>
      <g>
        <path class="cls-1" d="M265.47,187.53h-31.21v-76.5c0-3.32-2.85-6.24-6.1-6.24s-6.24,2.86-6.24,6.24v76.5h-31.21v-76.5c0-16.29,10.46-30.63,26.04-35.67l.11-.03c4.03-1.18,7.73-1.75,11.3-1.75s7.19.59,11.17,1.75l.11.03c15.57,5.04,26.04,19.37,26.04,35.67v76.5ZM242.17,179.62h15.39v-68.59c0-12.83-8.24-24.13-20.51-28.12-3.23-.94-6.23-1.41-8.9-1.41s-5.75.46-9.03,1.41c-12.27,3.99-20.51,15.29-20.51,28.12v68.59h15.39v-68.59c0-7.8,6.35-14.15,14.15-14.15s14.01,6.48,14.01,14.15v68.59Z"/>
        <path class="cls-1" d="M314.73,187.53c-20.58,0-37.31-16.8-37.31-37.45v-39.05c0-20.65,16.74-37.45,37.31-37.45s37.31,16.8,37.31,37.45v39.05c0,20.65-16.74,37.45-37.31,37.45ZM314.73,81.5c-16.21,0-29.4,13.25-29.4,29.54v39.05c0,16.29,13.19,29.54,29.4,29.54s29.4-13.25,29.4-29.54v-39.05c0-16.29-13.19-29.54-29.4-29.54ZM314.73,164.23c-7.8,0-14.15-6.35-14.15-14.15v-39.05c0-7.8,6.35-14.15,14.15-14.15s14.01,6.35,14.01,14.15v39.05c0,7.8-6.29,14.15-14.01,14.15ZM314.73,104.79c-3.38,0-6.24,2.86-6.24,6.24v39.05c0,3.44,2.8,6.24,6.24,6.24s6.1-2.74,6.1-6.24v-39.05c0-3.44-2.74-6.24-6.1-6.24Z"/>
        <path class="cls-1" d="M401.3,187.53c-20.57,0-37.31-16.8-37.31-37.45v-39.05c0-20.65,16.74-37.45,37.31-37.45s37.31,16.8,37.31,37.45v39.05c0,20.65-16.74,37.45-37.31,37.45ZM401.3,81.5c-16.21,0-29.4,13.25-29.4,29.54v39.05c0,16.29,13.19,29.54,29.4,29.54s29.4-13.25,29.4-29.54v-39.05c0-16.29-13.19-29.54-29.4-29.54ZM401.3,164.23c-7.8,0-14.15-6.35-14.15-14.15v-39.05c0-7.8,6.35-14.15,14.15-14.15s14.02,6.35,14.02,14.15v39.05c0,7.8-6.29,14.15-14.02,14.15ZM401.3,104.79c-3.38,0-6.24,2.86-6.24,6.24v39.05c0,3.44,2.8,6.24,6.24,6.24s6.11-2.74,6.11-6.24v-39.05c0-3.44-2.74-6.24-6.11-6.24Z"/>
        <path class="cls-1" d="M525.31,187.53h-31.21v-.51c-2.02.34-4.1.51-6.24.51-20.58,0-37.31-16.8-37.31-37.45v-39.05c0-20.65,16.74-37.45,37.31-37.45,2.03,0,4.09.18,6.24.56v-34.71h31.21v148.09ZM502.01,179.62h15.39V47.34h-15.39v37.06l-5.06-1.48c-3.3-.96-6.27-1.43-9.08-1.43-16.21,0-29.4,13.25-29.4,29.54v39.05c0,16.29,13.19,29.54,29.4,29.54,3.17,0,6.18-.47,8.94-1.39l5.21-1.74v3.12ZM487.87,164.23c-7.73,0-14.02-6.35-14.02-14.15v-39.05c0-7.8,6.29-14.15,14.02-14.15s14.15,6.35,14.15,14.15v39.05c0,7.8-6.35,14.15-14.15,14.15ZM487.87,104.79c-3.37,0-6.11,2.8-6.11,6.24v39.05c0,3.5,2.68,6.24,6.11,6.24s6.24-2.8,6.24-6.24v-39.05c0-3.38-2.86-6.24-6.24-6.24Z"/>
        <path class="cls-1" d="M568.46,187.53h-31.21V39.43h31.21v148.09ZM545.16,179.62h15.39V47.34h-15.39v132.28Z"/>
        <path class="cls-1" d="M617.85,187.53c-4.03,0-7.88-.6-11.44-1.79-15.54-5.08-26-19.41-26-35.65v-39.05c0-15.99,10.7-30.65,26.02-35.66l.12-.04c4.03-1.18,7.73-1.75,11.3-1.75,20.57,0,37.31,16.8,37.31,37.45v29.9h-43.55v9.15c0,3.44,2.8,6.24,6.24,6.24s6.1-2.74,6.1-6.24v-3.95h31.21v3.95c0,20.65-16.74,37.45-37.31,37.45ZM608.83,82.91c-12.08,3.98-20.51,15.53-20.51,28.12v39.05c0,12.81,8.27,24.12,20.57,28.14,2.78.93,5.79,1.39,8.97,1.39,14.88,0,27.21-11.16,29.14-25.58h-15.68c-1.7,5.88-7.09,10.19-13.46,10.19-7.8,0-14.15-6.35-14.15-14.15v-17.06h43.55v-21.99c0-16.29-13.19-29.54-29.4-29.54-2.8,0-5.75.46-9.03,1.41ZM631.87,117.63h-28.16v-6.6c0-7.8,6.35-14.15,14.15-14.15s14.01,6.35,14.01,14.15v6.6ZM611.76,109.72h12.06c-.59-2.81-3.04-4.93-5.97-4.93s-5.48,2.15-6.09,4.93Z"/>
      </g>
    </g>
  </g>
</svg>